Coordinates
version=1
nRows=14
nColumns=24
inDegrees=yes

Units are S.I. units (second, meters, Newtons, ...)
Angles are in degrees.

endheader
time	pelvis_tilt	pelvis_list	pelvis_rotation	pelvis_tx	pelvis_ty	pelvis_tz	hip_flexion_r	hip_adduction_r	hip_rotation_r	knee_angle_r	ankle_angle_r	subtalar_angle_r	mtp_angle_r	hip_flexion_l	hip_adduction_l	hip_rotation_l	knee_angle_l	ankle_angle_l	subtalar_angle_l	mtp_angle_l	lumbar_extension	lumbar_bending	lumbar_rotation
      0.01000000	     65.84653169	      3.58076327	     -2.64012966	      0.55346836	      0.99972874	     -0.29347314	      5.11601875	    -10.08832307	     11.44951446	      5.88152345	    -24.00812515	      2.68555374	    -19.74502933	     -9.47843963	     -6.81975750	      1.38146551	    -53.65951923	     -2.65192111	      9.13650316	    -32.20970163	      0.00000000	      0.00000000	      0.00000000
      0.02000000	     66.22644069	      3.69617077	     -2.76122682	      0.55319165	      0.99986782	     -0.29335491	      4.67714774	    -10.23647386	     11.50075117	      6.02403739	    -24.04348063	      2.74162990	    -19.54531106	     -9.96203160	     -6.66419827	      1.28056048	    -53.46667420	     -2.79265712	      9.02494704	    -32.31920171	      0.00000000	      0.00000000	      0.00000000
      0.03000000	     66.46007375	      3.77220655	     -2.79838103	      0.55292372	      0.99985008	     -0.29322071	      4.41845168	    -10.32127358	     11.50385853	      6.08368414	    -24.04469027	      2.74591739	    -19.43925382	    -10.22827807	     -6.58260763	      1.25122627	    -53.38042123	     -2.88218105	      8.96849212	    -32.37306962	      0.00000000	      0.00000000	      0.00000000
      0.04000000	     66.58217771	      3.81914838	     -2.78139784	      0.55273664	      0.99978029	     -0.29313358	      4.28914659	    -10.36349406	     11.48792227	      6.08650526	    -24.01270271	      2.72342113	    -19.40918869	    -10.34001752	     -6.54808910	      1.27064996	    -53.36858011	     -2.93016586	      8.95407303	    -32.37018526	      0.00000000	      0.00000000	      0.00000000
      0.05000000	     66.63603245	      3.84911572	     -2.74152585	      0.55267875	      0.99973241	     -0.29313150	      4.23210730	    -10.38760349	     11.48619186	      6.06158209	    -23.95093999	      2.70332369	    -19.43360394	    -10.36722729	     -6.53270930	      1.31410651	    -53.39509048	     -2.94638396	      8.96639275	    -32.30825645	      0.00000000	      0.00000000	      0.00000000
      0.06000000	     66.66408434	      3.87301717	     -2.70238014	      0.55268919	      0.99970126	     -0.29317804	      4.19858834	    -10.41586384	     11.52524536	      6.03313609	    -23.86636679	      2.71034165	    -19.49102199	    -10.36889065	     -6.51650676	      1.36222177	    -53.43023170	     -2.93796108	      8.99146567	    -32.18460661	      0.00000000	      0.00000000	      0.00000000
      0.07000000	     66.69844976	      3.89770081	     -2.67733994	      0.55267212	      0.99965516	     -0.29320438	      4.15624733	    -10.46322995	     11.61649671	      6.01634581	    -23.76942601	      2.75789046	    -19.56212970	    -10.38453054	     -6.49038242	      1.40394266	    -53.45674178	     -2.90885548	      9.01890469	    -31.99779080	      0.00000000	      0.00000000	      0.00000000
      0.08000000	     66.75360734	      3.92483228	     -2.67072541	      0.55262649	      0.99960300	     -0.29318796	      4.09109978	    -10.53262320	     11.75208490	      6.01660661	    -23.67274018	      2.84437234	    -19.63068938	    -10.43352285	     -6.45320626	      1.43534529	    -53.47105275	     -2.86115483	      9.04306035	    -31.74959883	      0.00000000	      0.00000000	      0.00000000
      0.09000000	     66.82629825	      3.95292125	     -2.68011360	      0.55259472	      0.99958677	     -0.29317285	      4.00517118	    -10.61324912	     11.90668191	      6.03140363	    -23.58900668	      2.95380281	    -19.68383697	    -10.51768161	     -6.40755499	      1.45651574	    -53.47938792	     -2.79727482	      9.06294860	    -31.44687380	      0.00000000	      0.00000000	      0.00000000
      0.10000000	     66.90344971	      3.97914221	     -2.69941677	      0.55257394	      0.99962724	     -0.29320806	      3.91157056	    -10.68615927	     12.04512204	      6.05341771	    -23.52872853	      3.06088466	    -19.71223375	    -10.62395653	     -6.35834210	      1.46918903	    -53.49045383	     -2.72185888	      9.08099706	    -31.10255070	      0.00000000	      0.00000000	      0.00000000
      0.11000000	     66.97202074	      3.99934679	     -2.72184776	      0.55255239	      0.99969759	     -0.29327218	      3.82807365	    -10.73420598	     12.13358995	      6.07372549	    -23.49837104	      3.13898300	    -19.71023861	    -10.72858814	     -6.31311872	      1.47577524	    -53.50900871	     -2.64234714	      9.10105255	    -30.73546574	      0.00000000	      0.00000000	      0.00000000
      0.12000000	     67.02326469	      4.01012156	     -2.74127106	      0.55254125	      0.99975589	     -0.29330588	      3.77066403	    -10.74758388	     12.15047357	      6.08483973	    -23.49935798	      3.16827713	    -19.67601893	    -10.80600500	     -6.28044056	      1.47890858	    -53.53453282	     -2.56785285	      9.12631559	    -30.36875525	      0.00000000	      0.00000000	      0.00000000
      0.13000000	     67.05134387	      4.01180416	     -2.75224413	      0.55253693	      0.99977900	     -0.29329686	      3.74877741	    -10.72406665	     12.09303527	      6.08303330	    -23.52807923	      3.14135168	    -19.61143385	    -10.83990337	     -6.26638361	      1.48110547	    -53.56429597	     -2.50687937	      9.15778737	    -30.02702336	      0.00000000	      0.00000000	      0.00000000
      0.14000000	     67.05280363	      4.00739592	     -2.75079156	      0.55251821	      0.99976652	     -0.29328198	      3.76323941	    -10.66958090	     11.97765096	      6.06900212	    -23.57689469	      3.06455762	    -19.52157051	    -10.82861818	     -6.27225386	      1.48463327	    -53.59592757	     -2.46502196	      9.19364916	    -29.73285549	      0.00000000	      0.00000000	      0.00000000
